<mxfile host="app.diagrams.net" modified="2024-01-15T19:23:03.806Z" agent="Mozilla/5.0 (Windows NT 10.0; Win64; x64) AppleWebKit/537.36 (KHTML, like Gecko) Chrome/120.0.0.0 Safari/537.36" etag="KUL_bzd6ittOkKo7i3Uw" version="22.1.18" type="github">
  <diagram name="Page-1" id="U94SAC6J2jRe7rw0cMBp">
    <mxGraphModel dx="1434" dy="746" grid="1" gridSize="10" guides="1" tooltips="1" connect="1" arrows="1" fold="1" page="1" pageScale="1" pageWidth="3300" pageHeight="4681" math="0" shadow="0">
      <root>
        <mxCell id="0" />
        <mxCell id="1" parent="0" />
        <mxCell id="bdUtZwRJ1dvIAkpFf9kO-5" value="" style="shape=stencil(pZ3b0t22DYWfxrca8Uxep+l7ZCZO46lrZxynh7cvUI/0by3s/Sme3vlAbFEkCCwsANS78sPvv/702/t3ef/965fPf3//rw8/f/31XfnLu5w/fPr1/ZcPX+1P78qP78oPv3z+8v5vXz7/8ennb3//7Scf6X/6x+d/+i/8+5tc2dJyobz/59s/rLWl+b9/+eu38R8/fMLxY6sdx5fr+L7lReP3eR1ft4Xz2cd1fNlqxfEy/7SNhPOvl/FzbXP/jvWZY5s4n3R939m2xfO5rucsd+vTr+PzscJPx+fj187x+5Zhf/M2r78/5tbhffM2rvMf41jhF+P7fh3ftgH6k7d61YdRt5pxvPz+qVEvxpd2HW/603B8vo7ft1pofL7+frfzCPqQt3Rd/z6OFX4xXs5L78cKPB2ftiXjG+pPUn3oZZuwnrZ6Mt52HOaftp6u4xPubzqswTne9BnHl+vvt3WcoBfjZT1b3xbo835Yj3M8r6dpy/U8toL2c1f9abYCOH6/jq9rGzj//Tr/avYN9D+sZ22oD/n4tYfxpP/1sK7n+Ir2Z2w5jC+0v/vx+AeBDA9I5Tjfj0+gEzbCFlQ2EfvWhwo0suk1bELdBm2C2ZCpAgsEih0DWVbbNlCLUreUVaCQ3xvqyEyAgEeNmt22RgIl7HRDVapdbbsLwFmzo9XDlEjAzrqetnbs/XMBA1dRAJbVrFteYZVg48w8pyBQYUrdTmhYpQpTMgeWpwoUesLaWpgSnWlz2TPsND3BMMGKT4CNG11h2p3AVBx4MyWDZU8EYOMc9wXly/SEdgC/B4EdXOccwXabmQGBtR+K8Cct38rH7z0IULRiwYO4WxOgd7DopMsTDL/QlKoCHhPooHwWn6i2nhj61UvvMiUDZeBQbFn1TO8Yg8x5QIRDoCwEtbMf/30KTESdrkvX82D2fMJ5sKhmBIFEypfVxxUGtnaA1lU1SsONG2Zm5An1MAsvz/SuAoQEzGoMeUI51PG5QFXVKGf88MryDdnpHR37CGamnAjwuTGeh/s4BLL9CyifxR8SYeR+uMnnAk0BluGbBspnHkhiSIuKM1iNHpTPwxp6Qj6U+RTYkYVwL3p9QuIww6Oc67IabCTVsDBHjmjqh+d+JbDLlCriJYMOcuJS3hasUjsV4RRIyC20oX7ajiChn6GvMDAWc7QkwSQik9bUXzXctHaGIufhwdjH4F65HrZ8sFUv4aFgAMTQzWxkkfkjmkwafI6DbXg+fj/O4UkeoRsxPNyuvtOirQIaVKf6TtMg8mx1qDtPfPQN00tsZadggL1zfB3PGb1DPfiNh5N8E5fIqqaJfqcGDsysEeFhwxNFBBK/9K7Q0HlGeGnDExI1mKrS0Tc8kcSNNOR5HB5cz6Yd5kYCXZlg026Kog0eCNVj6k0m2Ly9CixcVvP2EkWbsyWy07y9xIclIZZ0by8Iw2w2vIPNWPgVmySBzxyCgMIRqO3rEqTXUb1zWFZTFjKTzqkGeEtHNAf1doUn0nOo/7cjReREaool7dASSjKzJbyzmYVKU0pPYivy/2bnUmDGKDOSAnCrjDBsWdvVGJt5vtnpLuTnjg7XtFUcurk88uiuzCJgmJ7tUr2qhoEOAp+2rz0Q0Ds5xa6msmf06uZFJczobFtb5NAbBgGGM+Z1Hzon/QxYCRDrjARaCJX6QuhmiygAepwU5J/krUZGhtIWUcDYKBi9WSAj5ISnnijMWIdXPgUacu8jGLLBQfFoIVs1MRvg/y3ps4WRz0wHIj8hX+I4varlmxkx3xzKFE/bB2Iz1sG0nQIVYetKigTmaXheCZQ9TIkYmaS07Ezo2E1A0IztA9klfwdRvoFneu1qvU1ZkOjajwP5cB5wlXa1GnZEG730rl7UTkhnokuggyc/QTVcQAxZQzPjyypPqJg+jLpkhqeB9fadDv6BgsSoS87hs2poSnCgMXaB65TMnpMhezKlhngpqnfjsCzuQ0tIBfhOh7wm7nRQPgs2iYBfe8g89kPhXwkI93aTm3G2OzyB4I+tkpwHA1hkW31K5Xte2mxrHrqsFDSZ9ZaIve0YP8ymU3LWggSKhvimS2RbzfSKf2icejTTKx7IzgPlvJ3HFdw6kQ58AwoPZxqp5azhcU+ctluahesF/XQfyjo4jUpZuBYqLZgIsQlIhHKDKt8qPR5RJRGOppsRVZLAUPLaXBa9Qzvztw+okgh4h9LyBIYOpv2KBG5Ivl3JnMHG2I684taTF31FqonLGoNrNJqCxBtw4km6UFU26B1y2Di2SzXAn7lzpLg02W92hJBAGUc26UEAayhaKL3LeOJK1ZzADQwtIe89ufjF+XZ56cYh/tCcwGSXZSG+BODmMbDeMAcofVNwGCquPEAgqmUqBWxuknCr87fX87ASczNdV2kxSExNHcq6qXobigQcozE3U6MAcWSBlXZQxzVFKbwDqYZpaw37QDnj0rVwxAQoQqk2gaQCtA9vFUQPAlTWYehIM1g77oP7h10FqMKhjSdTIn6px2h3ISIzv68lx4sTtF2RsZ84BifCt5oApRPMK4u2mhFA5qQE1uGGCGnKzZgA2SXzaDlMiQo7x1LHbpaPqPgZSk294IaYk6wVDnOgF51d+SUXoClFqmWgy/JalhIEuLwmhZdGEmEEbmZgHYgJzPAEFJgKQ31KFMdNJULmDU0RaGzXJYrYl2I+V2+a0lJi0A8QLet60gdB9Oma6rJMgGIgE1DlW+jY19BI0QQoHFhDa+X9CfTSXVO1JkBk/woFBR4wEycQkl+2D0hTnCTdgwASIe0wKg8CBOHsHbQjZXB9WtcQ//6IRsuHZX9D80AmUGhZp1Jek0PLNZVqcbvEJ05Zaa41WSfofHQofOIk/zAn29YVPBB7UXtpxd7sp1dIfk2OstYIyrcwp/j9AtE/rNtqyrBK8/t83MLiefOi6oHYLrmfbkGAKK+YTmCB8fQd4KVHCGnmiWRf4SU9QAv72AyRzYhbv6to26E01ZEvTXMuDvF7yDR5/EA5xapnejF3b9hb/IPHQIzuNRa9KZkrSmPfRIp1KUg0ASxHaspreAclPSGp23WemqiWrmyoHVrsSU1aN+vxNEwpDzVkJkDcvRfuiWoUpin2MKWCfjpNNWQmQGA9hfqlVfAdvIQkPIEOUHoWi1LBU2pP/ANhvjQClJ7YkxDb1WbHAkDvNxXL13BKOXCVnj2mgqcZHEo5zPNzbT0bEB94PoofSuiJ86w79RSH0oV5psNeUo+BDS2w0yWwDuZisBYuxA9jorbWUL9sAuQfala36yE5cTPhTI/OpTxNveho6NjrCEn5iv6hztAdXXDjWmgPHQXLYFpWjmxk7HduoVFv3LisrjWJYz9otlc+TpPyE890W1qJ0AfyfOZ2BWB50zP56fKkToDOtKe6JNNUjsbm5wJTA/Ce8Qljf1JHRlHWCD0JjcuGTZnlHWxnCC+NQLW0hoUFZiO0fr5i8/8M3duNyyQ9ASJP2PGl51nudwh4Qptbn7S9l+PpN67nFOAOcXOBsQUaK0J2zQN5Gx3FooEYNFuI1UU1FJPelC5UpU/viiNii/JN+UXVEP+uwCNEinclJFW7K+6KVIp6US8sICYxVp92ZhKDy/IWGXC7jiFDsRA59tid2HdMmft1K3JBRMb4YQUY6iVVtA9FswO94ZUnJvDkTgx+ghZtLVbv0HgzuPxiFY3YvXiOtLU8qw3ld1BENvjEFSVovdSTnyCmcnLg5wdIOIHC5UglsKGVGd2w04bukf3Zw3U4XPo8Z2DWuVjI/INU5tg7YB9qCQHHTX3rru2MkyuZR4h2546qYShVQeLCM+1VMgGsZ1ANgz9avt0xt2tHXquxGychw0VGXmRFiGzXm2jsiJJdaoEzHhnLYMy4qwDb1laVRHC7RNg7qy45zoR9aLtWtXjyljq/hnIC/eZ+llDg0Tk89mY0QcYM4UooLGjccWzxdBOBjkFT7GlqBbG39xeHW3gIzXhHX4ChNw1E+bpxlRvqU7z+oXM64Um1KuaCQ2Vo5WAg1Kpyr3tgc/0WBHrhUOZZE9Zq+MU94doEYhFTC7cgnAWHr+guyW4UrgtNS+8dMWWn8+x96vKEzgIB7xW+dyQ35bwLV8T7jUvSrsdlbaZJepNDwnR5DpmysiNsKOHekbvGzNB9f9f6mbXeJHONQAnwzXvRyepVPQ+Z70MqoVE58814pjkSO+Ryd0WTeNDMDtG0X0ovvFiPizCF+Ul84uquB8h5dmYRBbOmzj3sRe2qmQXsYQ93dqSCKKAGiiIxX+x0wfU8pMQ+OtSrLyzKqUNVaaL/rKGrrPPVXaH+hZsyYw6L3bPfU3DdZG5BM+ct/n9HrYu4je9MaSFmSFziPTQiLnc1goKFOSRxZCtEBh7LtrROhsszemCt113JojQkJS7s7KFoPmWuQMzqmVPBuNDpXRFod5fQCLp4659+FfGoUkzuPw21RInb52KdpukpnbMergV8u970VZgnipELmq6x68n3fByFqqH/NA+sW7YYTdLXmUOkUZUWz1zTNUIuoHBVsd+YKxgsIRNj4bvegMCc20zKABROX88cLmUodzy65AIK3/02m9Z0GUCpRLyHawG93pveYYarK7hb2rPb4VYz8psrdJ3cXCzhLHcIMXBKIcnvNetENIYLbzxM4ro0bQEsSKykPV4BW7l2dAb307B/boUrEAyhIEUc767oGOutcA2yCZBLn/Hqzo61o6auukqdy7sDverpY6rWjjdxDuQB/crIEQRuLrALUyL0PKK6DjwQo4RMFL+0X2AXWlzxPrqlWO9mH/oItyd25JT9gtOgGje3xWnqqmMWp4Vq7coNqH6xWRCgHo9WtIjFBfjqLr2DmPehht4CF6CgIU5p4NWdMTi8eYfSNU6qXExUSmgq56sKS2wq5056Ay89GjJqw6rPTCWsUg7ZA79whpjGcKmeCxCXGXk0tt4G5gWd+CoRJAvUIVOZXdu87hTjSRs9wavA3VjAS+FJ0fDQy3io0TPQz1wrEhiGxun9kO5pjW/VC2Uc3CFQlW/3K5Dw9yW28gCQyqZ0fTpXiVQN9jqXWtYn1UAYzysl1JmEbRqtdu6iaurHO18e2jSouvkGRdOEypvX/XPzuStCC+MrRudx/g2bApp6v8GgooXKwcn8UWie4m9KhAtrZ75ZH+26LnyPqWL+2TC/25TYvflGTchz3HwDp4W6Yf7GTntSXE1pkRY6AfgbQU3prJtvEIX1ufnGURzP31CKFfQL+bKmYebidHzIlS9uQGmhQJ97aGroMVgMFhVyPMSQrxzS+k6BPewAe3iJIm7eOLQP36xoCY0hvGNFW7duNOL//2qXjrc/vH0i7JcPHz9++8LY4//rJ8Xsn759jqz8+F8=);lineShape=1;strokeColor=default;" vertex="1" parent="1">
          <mxGeometry x="392.54476305736716" y="305.8340683664362" width="145.20029471386897" height="219.96943610400513" as="geometry" />
        </mxCell>
      </root>
    </mxGraphModel>
  </diagram>
</mxfile>
